HIERARCHY
ROOT root
{
  OFFSET 0 90.5966 0
  CHANNELS 6 Xposition Yposition Zposition Zrotation Xrotation Yrotation
  JOINT torso_1
  {
    OFFSET 0 4.93189 -1.1181
    CHANNELS 6 Xposition Yposition Zposition Zrotation Xrotation Yrotation
    JOINT torso_2
    {
      OFFSET 0 5.45428 1.04046
      CHANNELS 6 Xposition Yposition Zposition Zrotation Xrotation Yrotation
      JOINT torso_3
      {
        OFFSET -9.96389e-18 5.81666 0.111686
        CHANNELS 6 Xposition Yposition Zposition Zrotation Xrotation Yrotation
        JOINT torso_4
        {
          OFFSET -1.07264e-17 6.3178 -0.430704
          CHANNELS 6 Xposition Yposition Zposition Zrotation Xrotation Yrotation
          JOINT torso_5
          {
            OFFSET -1.91593e-17 7.38567 -1.4624
            CHANNELS 6 Xposition Yposition Zposition Zrotation Xrotation Yrotation
            JOINT torso_6
            {
              OFFSET -2.45986e-17 9.22288 -0.888062
              CHANNELS 6 Xposition Yposition Zposition Zrotation Xrotation Yrotation
              JOINT torso_7
              {
                OFFSET -2.82008e-17 10.2464 1.53133
                CHANNELS 6 Xposition Yposition Zposition Zrotation Xrotation Yrotation
                JOINT neck_1
                {
                  OFFSET -1.25459e-17 4.64811 0.694664
                  CHANNELS 6 Xposition Yposition Zposition Zrotation Xrotation Yrotation
                  JOINT neck_2
                  {
                    OFFSET -1.75924e-17 4.68175 0.4096
                    CHANNELS 6 Xposition Yposition Zposition Zrotation Xrotation Yrotation
                    JOINT head
                    {
                      OFFSET -1.9515e-17 4.6908 0.74295
                      CHANNELS 6 Xposition Yposition Zposition Zrotation Xrotation Yrotation
                      End Site
                      {
                        OFFSET 0 0.1 0
                      }
                    }
                  }
                }
                JOINT l_shoulder
                {
                  OFFSET 1.19736 -7.38744 7.31601
                  CHANNELS 6 Xposition Yposition Zposition Zrotation Xrotation Yrotation
                  JOINT l_up_arm
                  {
                    OFFSET 12.5803 3.15559 -3.17425
                    CHANNELS 6 Xposition Yposition Zposition Zrotation Xrotation Yrotation
                    JOINT l_low_arm
                    {
                      OFFSET 28.3639 0.0580795 0.133078
                      CHANNELS 6 Xposition Yposition Zposition Zrotation Xrotation Yrotation
                      JOINT l_hand
                      {
                        OFFSET 23.5335 0.0481878 0.110415
                        CHANNELS 6 Xposition Yposition Zposition Zrotation Xrotation Yrotation
                        End Site
                        {
                          OFFSET 0.1 0 0
                        }
                      }
                    }
                  }
                }
                JOINT r_shoulder
                {
                  OFFSET -1.19736 -7.38743 7.31591
                  CHANNELS 6 Xposition Yposition Zposition Zrotation Xrotation Yrotation
                  JOINT r_up_arm
                  {
                    OFFSET -12.5803 3.15559 -3.17425
                    CHANNELS 6 Xposition Yposition Zposition Zrotation Xrotation Yrotation
                    JOINT r_low_arm
                    {
                      OFFSET -28.3639 0.0580795 0.133078
                      CHANNELS 6 Xposition Yposition Zposition Zrotation Xrotation Yrotation
                      JOINT r_hand
                      {
                        OFFSET -23.5335 0.0481876 0.110415
                        CHANNELS 6 Xposition Yposition Zposition Zrotation Xrotation Yrotation
                        End Site
                        {
                          OFFSET -0.1 0 0
                        }
                      }
                    }
                  }
                }
              }
            }
          }
        }
      }
    }
  }
  JOINT l_up_leg
  {
    OFFSET 8.96978 -4.08401 1.97395
    CHANNELS 6 Xposition Yposition Zposition Zrotation Xrotation Yrotation
    JOINT l_low_leg
    {
      OFFSET -0.827718 -37.6515 -0.63625
      CHANNELS 6 Xposition Yposition Zposition Zrotation Xrotation Yrotation
      JOINT l_foot
      {
        OFFSET -2.25899 -39.2341 -5.87393
        CHANNELS 6 Xposition Yposition Zposition Zrotation Xrotation Yrotation
        JOINT l_toes
        {
          OFFSET 0.756579 -9.59872 12.1348
          CHANNELS 6 Xposition Yposition Zposition Zrotation Xrotation Yrotation
          End Site
          {
            OFFSET 0 0 0.1
          }
        }
      }
    }
  }
  JOINT r_up_leg
  {
    OFFSET -8.96978 -4.08401 1.97395
    CHANNELS 6 Xposition Yposition Zposition Zrotation Xrotation Yrotation
    JOINT r_low_leg
    {
      OFFSET 0.827718 -37.6515 -0.63625
      CHANNELS 6 Xposition Yposition Zposition Zrotation Xrotation Yrotation
      JOINT r_foot
      {
        OFFSET 2.25899 -39.2341 -5.87393
        CHANNELS 6 Xposition Yposition Zposition Zrotation Xrotation Yrotation
        JOINT r_toes
        {
          OFFSET -0.756579 -9.59872 12.1348
          CHANNELS 6 Xposition Yposition Zposition Zrotation Xrotation Yrotation
          End Site
          {
            OFFSET 0 0 0.1
          }
        }
      }
    }
  }
}
MOTION
Frames: 5
Frame Time: 0.016667
0 90.5966 0 -0 0 -0 0 4.93189 -1.1181 -0 0 -0 0 5.45428 1.04046 -0 0 -0 -9.96389e-18 5.81666 0.111686 -0 0 -0 -1.07264e-17 6.3178 -0.430704 -0 0 -0 -1.91593e-17 7.38567 -1.4624 -0 0 -0 -2.45986e-17 9.22288 -0.888062 -0 0 -0 -2.82008e-17 10.2464 1.53133 -0 0 -0 -1.25459e-17 4.64811 0.694664 -0 0 -0 -1.75924e-17 4.68175 0.4096 -0 0 -0 -1.9515e-17 4.6908 0.74295 -0 0 -0 1.19736 -7.38744 7.31601 -0 0 -0 12.5803 3.15559 -3.17425 -0 0 -0 28.3639 0.0580795 0.133078 -0 0 -0 23.5335 0.0481878 0.110415 -0 0 -0 -1.19736 -7.38743 7.31591 -0 0 -0 -12.5803 3.15559 -3.17425 -0 0 -0 -28.3639 0.0580795 0.133078 -0 0 -0 -23.5335 0.0481876 0.110415 -0 0 -0 8.96978 -4.08401 1.97395 -0 0 -0 -0.827718 -37.6515 -0.63625 -0 0 -0 -2.25899 -39.2341 -5.87393 -0 0 -0 0.756579 -9.59872 12.1348 -0 0 -0 -8.96978 -4.08401 1.97395 -0 0 -0 0.827718 -37.6515 -0.63625 -0 0 -0 2.25899 -39.2341 -5.87393 -0 0 -0 -0.756579 -9.59872 12.1348 -0 0 -0 
21.5916 90.5443 21.4858 -4.21401 18.1573 0.676073 0 4.93189 -1.1181 -3.23302 7.04497 0.88345 0 5.45428 1.04046 -3.01311 5.81485 0.529275 -9.96389e-18 5.81666 0.111686 -2.71914 5.3353 0.466814 -1.07264e-17 6.3178 -0.430704 -2.49789 4.53653 0.383015 -1.91593e-17 7.38567 -1.4624 -2.11429 3.41036 0.723946 -2.45986e-17 9.22288 -0.888062 -1.54649 2.89158 1.10096 -2.82008e-17 10.2464 1.53133 -0.0250419 0.0623869 0.00921128 -1.25459e-17 4.64811 0.694664 -2.8359 6.52748 27.5066 -1.75924e-17 4.68175 0.4096 -12.1458 -9.02888 11.7765 -1.9515e-17 4.6908 0.74295 -14.708 -10.2549 5.99123 1.19736 -7.38744 7.31601 16.2442 -3.57706 -0.241073 12.5803 3.15559 -3.17425 -66.0838 -29.455 -43.02 28.3639 0.0580795 0.133078 6.86743 -2.13748 -35.1361 23.5335 0.0481878 0.110415 -0.833792 47.1618 0.499908 -1.19736 -7.38743 7.31591 -0.633426 2.80428 1.02165 -12.5803 3.15559 -3.17425 76.604 8.53075 5.50776 -28.3639 0.0580795 0.133078 -5.08907 -1.11459 25.2863 -23.5335 0.0481876 0.110415 1.45629 -37.9616 4.38704 8.96978 -4.08401 1.97395 5.42858 -29.2695 -11.2155 -0.827718 -37.6515 -0.63625 -2.43119 9.04369 0.0341008 -2.25899 -39.2341 -5.87393 -0.519248 -1.62966 15.2033 0.756579 -9.59872 12.1348 4.96962e-17 -7.95139e-16 1.2424e-17 -8.96978 -4.08401 1.97395 -2.19787 -17.2113 25.7447 0.827718 -37.6515 -0.63625 1.31425 4.90637 0.0293798 2.25899 -39.2341 -5.87393 7.41847 -1.94694 -16.523 -0.756579 -9.59872 12.1348 -1.98785e-16 -5.8393e-16 -1.27595e-14 
21.3867 90.5488 21.3315 -4.24331 18.1228 0.703724 0 4.93189 -1.1181 -3.2061 6.98599 0.897742 0 5.45428 1.04046 -2.99449 5.77159 0.54534 -9.96389e-18 5.81666 0.111686 -2.70766 5.30981 0.482736 -1.07264e-17 6.3178 -0.430704 -2.49357 4.53732 0.398549 -1.91593e-17 7.38567 -1.4624 -2.11168 3.42344 0.738133 -2.45986e-17 9.22288 -0.888062 -1.54561 2.90637 1.11195 -2.82008e-17 10.2464 1.53133 -0.0256597 0.0618378 0.00920318 -1.25459e-17 4.64811 0.694664 -2.88106 6.59289 27.42 -1.75924e-17 4.68175 0.4096 -12.1429 -9.03818 11.7395 -1.9515e-17 4.6908 0.74295 -14.7251 -10.3301 5.90229 1.19736 -7.38744 7.31601 16.4215 -3.67699 -0.153825 12.5803 3.15559 -3.17425 -66.4325 -30.0285 -43.0528 28.3639 0.0580795 0.133078 7.07021 -2.28167 -36.3272 23.5335 0.0481878 0.110415 -0.852368 46.1083 0.530184 -1.19736 -7.38743 7.31591 -0.635102 2.77696 0.968484 -12.5803 3.15559 -3.17425 76.6031 8.53202 5.52441 -28.3639 0.0580795 0.133078 -5.09651 -1.11806 25.3257 -23.5335 0.0481876 0.110415 1.49162 -37.9947 4.35951 8.96978 -4.08401 1.97395 5.62071 -29.2501 -10.9111 -0.827718 -37.6515 -0.63625 -2.39005 8.89241 0.0303293 -2.25899 -39.2341 -5.87393 -0.640073 -1.52849 15.2054 0.756579 -9.59872 12.1348 4.96962e-17 -7.95139e-16 1.2424e-17 -8.96978 -4.08401 1.97395 -2.08564 -17.1419 25.8984 0.827718 -37.6515 -0.63625 1.2492 4.66396 0.030576 2.25899 -39.2341 -5.87393 7.40274 -1.97207 -16.5058 -0.756579 -9.59872 12.1348 -1.98785e-16 -5.8393e-16 -1.27595e-14 
21.1628 90.5455 21.1714 -4.25327 18.0882 0.753997 0 4.93189 -1.1181 -3.17669 6.9156 0.914814 0 5.45428 1.04046 -2.97506 5.72164 0.564864 -9.96389e-18 5.81666 0.111686 -2.69581 5.28082 0.502148 -1.07264e-17 6.3178 -0.430704 -2.48956 4.54002 0.418049 -1.91593e-17 7.38567 -1.4624 -2.10866 3.44069 0.756578 -2.45986e-17 9.22288 -0.888062 -1.5438 2.92558 1.12716 -2.82008e-17 10.2464 1.53133 -0.0261802 0.0609659 0.0092475 -1.25459e-17 4.64811 0.694664 -2.91945 6.64595 27.2726 -1.75924e-17 4.68175 0.4096 -12.1161 -9.05567 11.6795 -1.9515e-17 4.6908 0.74295 -14.6899 -10.4052 5.87215 1.19736 -7.38744 7.31601 16.5766 -3.7827 -0.0710261 12.5803 3.15559 -3.17425 -66.8342 -30.6147 -43.1403 28.3639 0.0580795 0.133078 7.24506 -2.4112 -37.3684 23.5335 0.0481878 0.110415 -0.867988 44.5047 0.461025 -1.19736 -7.38743 7.31591 -0.615113 2.75199 0.932439 -12.5803 3.15559 -3.17425 76.5667 8.45549 5.51143 -28.3639 0.0580795 0.133078 -5.09201 -1.11596 25.3019 -23.5335 0.0481876 0.110415 1.55676 -37.9992 4.33426 8.96978 -4.08401 1.97395 5.79572 -29.2333 -10.6226 -0.827718 -37.6515 -0.63625 -2.34675 8.73304 0.026477 -2.25899 -39.2341 -5.87393 -0.790117 -1.441 15.2068 0.756579 -9.59872 12.1348 4.96962e-17 -7.95139e-16 1.2424e-17 -8.96978 -4.08401 1.97395 -1.97341 -17.1341 25.8381 0.827718 -37.6515 -0.63625 1.22016 4.55569 0.0310208 2.25899 -39.2341 -5.87393 7.3287 -2.05957 -16.4856 -0.756579 -9.59872 12.1348 1.30196e-16 -5.94211e-16 -1.27698e-14 
20.9214 90.5376 21.0084 -4.23885 18.0361 0.821124 0 4.93189 -1.1181 -3.15974 6.86809 0.93879 0 5.45428 1.04046 -2.96781 5.68571 0.590322 -9.96389e-18 5.81666 0.111686 -2.69433 5.25773 0.527705 -1.07264e-17 6.3178 -0.430704 -2.49401 4.53537 0.44441 -1.91593e-17 7.38567 -1.4624 -2.10959 3.44051 0.783683 -2.45986e-17 9.22288 -0.888062 -1.54157 2.92091 1.15162 -2.82008e-17 10.2464 1.53133 -0.02642 0.060332 0.00951215 -1.25459e-17 4.64811 0.694664 -2.95771 6.70719 27.1021 -1.75924e-17 4.68175 0.4096 -12.0732 -9.08625 11.6129 -1.9515e-17 4.6908 0.74295 -14.5881 -10.4731 5.85381 1.19736 -7.38744 7.31601 16.704 -3.86211 0.0154896 12.5803 3.15559 -3.17425 -67.1262 -31.0989 -43.183 28.3639 0.0580795 0.133078 7.4273 -2.55153 -38.4687 23.5335 0.0481878 0.110415 -0.95163 42.7791 0.413722 -1.19736 -7.38743 7.31591 -0.557142 2.75018 0.902453 -12.5803 3.15559 -3.17425 76.5119 8.3713 5.4838 -28.3639 0.0580795 0.133078 -5.07651 -1.10874 25.2198 -23.5335 0.0481876 0.110415 1.62382 -38.0247 4.32153 8.96978 -4.08401 1.97395 5.94122 -29.1938 -10.3701 -0.827718 -37.6515 -0.63625 -2.29926 8.55817 0.0223919 -2.25899 -39.2341 -5.87393 -0.966615 -1.35618 15.212 0.756579 -9.59872 12.1348 4.96962e-17 -7.95139e-16 1.2424e-17 -8.96978 -4.08401 1.97395 -1.88696 -17.1344 25.1643 0.827718 -37.6515 -0.63625 1.21585 4.53963 0.0310822 2.25899 -39.2341 -5.87393 7.23081 -2.20234 -16.453 -0.756579 -9.59872 12.1348 -3.26654e-16 -5.71724e-16 -1.27555e-14 
